<?xml version="1.0" encoding="UTF-8"?>
<svg width="56px" height="64px" viewBox="0 0 56 64" version="1.1" xmlns="http://www.w3.org/2000/svg" xmlns:xlink="http://www.w3.org/1999/xlink">
    <g id="Tracker-debbugger" stroke="none" stroke-width="1" fill="none" fill-rule="evenodd">
        <g id="Developers-portal-(3)" transform="translate(-657.000000, -278.000000)" fill="#131313" fill-rule="nonzero">
            <g id="D.-Images-&amp;-Icons/D.01-Icons/Filters/Black" transform="translate(653.000000, 278.000000)">
                <path d="M36,48 L36,64 L28,64 L28,48 L36,48 Z M36,0 L36,40 L28,40 L28,0 L36,0 Z" id="Combined-Shape"></path>
                <polygon id="Line" points="24 40 24 32 40 32 40 40"></polygon>
                <path d="M56,32 L56,64 L48,64 L48,32 L56,32 Z M56,0 L56,24 L48,24 L48,0 L56,0 Z" id="Combined-Shape"></path>
                <polygon id="Line" points="44 24 44 16 60 16 60 24"></polygon>
                <path d="M16,36 L16,64 L8,64 L8,36 L16,36 Z M16,0 L16,28 L8,28 L8,0 L16,0 Z" id="Combined-Shape"></path>
                <polygon id="Line" points="4 28 4 20 20 20 20 28"></polygon>
            </g>
        </g>
    </g>
</svg>