<?xml version="1.0" encoding="UTF-8"?>
<svg width="64px" height="64px" viewBox="0 0 64 64" version="1.1" xmlns="http://www.w3.org/2000/svg" xmlns:xlink="http://www.w3.org/1999/xlink">
    <g id="Tracker-debbugger" stroke="none" stroke-width="1" fill="none" fill-rule="evenodd">
        <g id="Developers-portal-(3)" transform="translate(-1343.000000, -278.000000)" fill="#000000">
            <g id="D.-Images-&amp;-Icons/D.01-Icons/Cookie/Black" transform="translate(1343.000000, 278.000000)">
                <g id="Page-1">
                    <g id="Group-6">
                        <path d="M33.2718788,0.0570716598 C30.0913825,4.32826508 33.0666098,10.606467 38.7826998,10.6444154 C37.4372077,13.0066914 36.9842518,15.5090519 37.5494341,18.1544242 C38.1151494,20.8022448 39.4763084,22.9875523 41.6980836,24.537104 C45.5905732,27.2518799 49.6201219,27.2512412 53.7379171,24.9373987 C54.519559,26.8700006 55.8830095,28.2666942 57.9090012,28.9294876 C59.939256,29.5936116 61.8658638,29.2807101 63.7047047,28.1255984 C64.1736473,31.6810409 64.0082918,35.1841647 63.243649,38.6527995 C61.6535607,45.8660867 58.0089712,51.8564022 52.3148896,56.560676 C41.0650112,65.8550058 25.064798,66.2636033 13.3970811,57.9002075 C1.22871474,49.1779781 -3.07196803,33.6499946 2.23949908,20.2272171 C7.73817019,6.33117536 21.2398255,-0.641381564 33.2718788,0.0570716598 Z M44.0314421,44 C41.7958421,43.9958994 40.0019217,45.772549 40,47.9926676 C39.9980282,50.1999296 41.7902418,51.9979178 43.9943732,52 C46.1990914,52.0020254 47.9982921,50.2068113 48,48.0031768 C48.0016523,45.8037567 46.2175459,44.0040614 44.0314421,44 Z M24.0329888,40 C21.7971226,39.9956337 20.0025093,41.7716427 20,43.9911738 C19.997549,46.1986486 21.7890688,47.9973298 23.9928264,48 C26.1976507,48.0026111 27.9977043,46.2078775 28,44.0046704 C28.0022913,41.8050375 26.2185053,40.0042758 24.0329888,40 Z M20.0447154,24 C17.7908072,23.9979215 15.9982812,25.7720402 16,28.0032011 C16.0016813,30.2047566 17.7944474,31.9985189 19.994593,32 C22.1963787,32.0014394 23.994105,30.2121579 24,28.0134829 C24.0059056,25.8137277 22.2204199,24.0019622 20.0447154,24 Z M30.0124661,28 C28.9067692,27.9961708 28.0079754,28.880837 28.0000529,29.9808373 C27.9920505,31.088601 28.8923248,31.9987984 29.9971814,32 C31.0937555,32.0011594 31.9968307,31.1021269 32,30.0061684 C32.0031526,28.903767 31.1115209,28.0038141 30.0124661,28 Z M26.0162957,16 C24.9015736,15.9949791 24.000921,16.8870055 24,17.9969662 C23.9990804,19.0947217 24.8972522,19.9973127 25.9932882,20 C27.0904446,20.002715 27.9951384,19.1056064 28,18.0100919 C28.0048616,16.9071742 27.1145324,16.0050234 26.0162957,16 Z" id="Combined-Shape"></path>
                    </g>
                    <path d="M48,3.98559753 C48.0043814,1.76749445 49.800539,-0.00511021563 52.0385889,0 C54.2217023,0.00502566031 56.0043124,1.80963835 56,4.01029706 C55.9956719,6.21234278 54.1930606,8.00457903 51.9872792,8 C49.7845914,7.99551009 47.9956876,6.19436493 48,3.98559753" id="Fill-7"></path>
                    <path d="M46.0017438,16 C47.1037044,16.0005605 47.9983171,16.8939091 48,17.9955083 C48.0016782,19.1006291 47.0939812,20.0048624 45.9878592,20 C44.8924608,19.9950982 43.9967677,19.0901045 44,17.9915066 C44.0032898,16.8900274 44.8984228,15.99944 46.0017438,16" id="Fill-9"></path>
                    <path d="M62.000942,16 C63.1030628,16.0002802 63.9979558,16.8932292 64,17.9946691 C64.0020771,19.0999907 63.0948201,20.0045448 61.988698,20 C60.8931793,19.9954208 59.997126,19.0908267 60,17.9923081 C60.0028879,16.8908682 60.8979009,15.9997199 62.000942,16" id="Fill-11"></path>
                </g>
            </g>
        </g>
    </g>
</svg>