<?xml version="1.0" encoding="UTF-8" standalone="no"?>
<!-- Created with Inkscape (http://www.inkscape.org/) -->

<svg
   xmlns:dc="http://purl.org/dc/elements/1.1/"
   xmlns:cc="http://creativecommons.org/ns#"
   xmlns:rdf="http://www.w3.org/1999/02/22-rdf-syntax-ns#"
   xmlns:svg="http://www.w3.org/2000/svg"
   xmlns="http://www.w3.org/2000/svg"
   version="1.1"
   width="316"
   height="52"
   viewBox="0 0 316 52"
   id="svg2">
  <metadata
     id="metadata10">
    <rdf:RDF>
      <cc:Work
         rdf:about="">
        <dc:format>image/svg+xml</dc:format>
        <dc:type
           rdf:resource="http://purl.org/dc/dcmitype/StillImage" />
        <dc:title></dc:title>
      </cc:Work>
    </rdf:RDF>
  </metadata>
  <defs
     id="defs8" />
  <path
     d="m 289.772,51.932163 c 0,0 -56.29314,0 -56.29314,0 -14.49086,0 -26.228,-11.622132 -26.228,-25.934992 0,-14.31286 11.73714,-25.93499347 26.228,-25.93499347 0,0 56.29314,0 56.29314,0 14.49086,0 26.228,11.62213347 26.228,25.93499347 0,14.31286 -11.73714,25.934992 -26.228,25.934992 z m 0,-44.9283609 c 0,0 -56.29314,0 -56.29314,0 -10.63115,0 -19.276,8.5244039 -19.276,18.9933689 0,10.468963 8.64485,18.993369 19.276,18.993369 0,0 56.29314,0 56.29314,0 10.63114,0 19.276,-8.524406 19.276,-18.993369 0,-10.468965 -8.64486,-18.9933689 -19.276,-18.9933689 z M 283.18114,37.55147 c -6.92943,0 -11.89514,-5.132731 -11.89514,-11.486467 0,0 0,-0.06783 0,-0.06783 0,-6.353736 5.03343,-11.554299 11.96286,-11.554299 6.90685,0 11.87257,5.132731 11.87257,11.486465 0,0 0,0.06783 0,0.06783 0,6.353734 -5.03343,11.554299 -11.94029,11.554299 z m 6.794,-11.554299 c 0,-3.821285 -2.82143,-7.032069 -6.794,-7.032069 -3.97257,0 -6.74885,3.14295 -6.74885,6.964235 0,0 0,0.06783 0,0.06783 0,3.843896 2.82142,7.032069 6.81657,7.032069 3.97257,0 6.72628,-3.142951 6.72628,-6.964236 0,0 0,-0.06783 0,-0.06783 z m -21.82657,7.212957 c 0.474,0.610501 0.79,1.130558 0.79,1.899338 0,1.356668 -1.15114,2.261114 -2.34743,2.261114 -1.106,0 -1.85085,-0.542667 -2.43771,-1.288835 0,0 -4.80772,-6.059789 -4.80772,-6.059789 0,0 -3.92742,0 -3.92742,0 0,0 0,4.884009 0,4.884009 0,1.379281 -1.106,2.464615 -2.48286,2.464615 -1.37686,0 -2.46029,-1.085334 -2.46029,-2.464615 0,0 0,-17.614088 0,-17.614088 0,-1.379281 1.08343,-2.464616 2.46029,-2.464616 0,0 7.78714,0 7.78714,0 2.86657,0 5.07857,0.791391 6.54572,2.261116 1.264,1.243612 1.91857,3.007283 1.91857,5.110119 0,0 0,0.06783 0,0.06783 0,3.504728 -1.76057,5.675398 -4.46915,6.805956 0,0 3.43086,4.137842 3.43086,4.137842 z m -3.95,-10.762909 c 0,-2.102837 -1.46714,-3.188172 -3.88228,-3.188172 0,0 -4.898,0 -4.898,0 0,0 0,6.421567 0,6.421567 0,0 4.98828,0 4.98828,0 2.41514,0 3.792,-1.266224 3.792,-3.165561 0,0 0,-0.06783 0,-0.06783 z m -25.07686,8.02696 c 0,0 -3.74685,0 -3.74685,0 0,0 0,4.431786 0,4.431786 0,1.379281 -1.08343,2.464615 -2.46029,2.464615 -1.37686,0 -2.48286,-1.085334 -2.48286,-2.464615 0,0 0,-17.614088 0,-17.614088 0,-1.379281 1.106,-2.464616 2.48286,-2.464616 0,0 6.68114,0 6.68114,0 5.372,0 8.59972,3.165561 8.59972,7.733014 0,0 0,0.04522 0,0.04522 0,5.177956 -4.04029,7.868683 -9.07372,7.868683 z m 4.08543,-7.82346 c 0,-2.215892 -1.55743,-3.391672 -4.01771,-3.391672 0,0 -3.81457,0 -3.81457,0 0,0 0,6.828568 0,6.828568 0,0 3.90485,0 3.90485,0 2.48286,0 3.92743,-1.469725 3.92743,-3.369062 0,0 0,-0.06783 0,-0.06783 z M 180.278,25.838893 c 0,0 15.86771,16.099141 15.86771,16.099141 2.25715,2.306336 2.23458,5.924121 -0.0903,8.185237 -2.30229,2.261114 -5.91372,2.238504 -8.19343,-0.06783 0,0 -15.8,-16.031308 -15.8,-16.031308 0,0 -3.09229,3.075118 -3.09229,3.075118 0,0 0,8.727904 0,8.727904 0,3.436896 -2.73114,6.172845 -6.18457,6.172845 -3.43085,0 -6.162,-2.735949 -6.162,-6.172845 0,0 0,-39.6599628 0,-39.6599628 0,-3.4368944 2.73115,-6.15023329 6.162,-6.15023329 3.45343,0 6.18457,2.71333889 6.18457,6.15023329 0,0 0,14.5841948 0,14.5841948 0,0 19.07286,-19.0385911 19.07286,-19.0385911 2.30229,-2.28372786 5.91372,-2.28372786 8.216,0 2.27972,2.2837262 2.27972,5.9015108 0,8.1852371 0,0 -15.98057,15.940863 -15.98057,15.940863 z m -38.95829,26.161104 c -3.45342,0 -6.18457,-2.73595 -6.18457,-6.172846 0,0 0,-39.6599623 0,-39.6599623 0,-3.4368944 2.73115,-6.15023329 6.18457,-6.15023329 3.43086,0 6.162,2.71333889 6.162,6.15023329 0,0 0,39.6599623 0,39.6599623 0,3.436896 -2.73114,6.172846 -6.162,6.172846 z m -25.05428,-4.070008 c -0.67714,2.396782 -2.79886,3.934341 -5.14629,4.047396 -0.11285,0.0226 -0.24828,0 -0.36114,0 -0.13543,0 -0.27086,0.0226 -0.38371,0 -2.34743,-0.113052 -4.46915,-1.650614 -5.14629,-4.047396 0,0 -6.455429,-22.452875 -6.455429,-22.452875 0,0 -6.432857,22.452875 -6.432857,22.452875 -0.677143,2.374171 -2.753714,3.911729 -5.078571,4.047396 -0.135429,0.0226 -0.270857,0 -0.406286,0 -0.158,0 -0.293428,0.0226 -0.428857,0 -2.324857,-0.135672 -4.401429,-1.673225 -5.078571,-4.047396 0,0 -11.692,-40.7452984 -11.692,-40.7452984 -0.857715,-2.9846716 0.880285,-6.1050112 3.859714,-6.94162457 2.979428,-0.85922362 6.094286,0.85922527 6.929428,3.84389687 0,0 6.410286,22.2945971 6.410286,22.2945971 0,0 6.387714,-22.2945971 6.387714,-22.2945971 C 93.919714,1.6901805 96.064,0.13001153 98.434,0.03956566 c 0.112857,0 0.225714,0 0.338571,0 0.135429,0 0.248286,0 0.361143,0 2.369996,0.0904475 4.514286,1.65061484 5.191426,4.04739724 0,0 6.43286,22.3850411 6.43286,22.3850411 0,0 6.41029,-22.3850411 6.41029,-22.3850411 0.85771,-2.9846716 3.95,-4.70312049 6.952,-3.84389687 2.97942,0.83661337 4.69485,3.95695297 3.83714,6.94162457 0,0 -11.692,40.7452984 -11.692,40.7452984 z m -59.836859,4.070008 c -3.430857,0 -6.162,-2.713339 -6.162,-6.150234 0,0 0,-39.6599624 0,-39.6599624 0,-3.4368961 2.731143,-6.15023494 6.162,-6.15023494 3.453429,0 6.184572,2.71333884 6.184572,6.15023494 0,0 0,39.6599624 0,39.6599624 0,3.436895 -2.731143,6.150234 -6.184572,6.150234 z M 25.528286,36.895747 c 0,0 0,0.04522 0,0.04522 0,0 -13.181715,0 -13.181715,0 0,0 0,8.818351 0,8.818351 0,3.436894 -2.7311424,6.172843 -6.184571,6.172843 -3.4308571,0 -6.162,-2.735949 -6.162,-6.172843 0,0 0,-39.5242966 0,-39.5242966 0,-3.4368961 2.7311429,-6.15023337 6.162,-6.15023337 0,0 19.366286,0 19.366286,0 0,0 0,0.02260375 0,0.02260375 C 35.392,0.51439553 43.246857,8.5865781 43.246857,18.512874 c 0,9.926296 -7.854857,17.998477 -17.718571,18.382868 z m -2.212,-25.708881 c 0,0 -10.969715,0 -10.969715,0 0,0 0,14.810305 0,14.810305 0,0 11.195429,0 11.195429,0 0,0 0,0 0,0 3.995143,-0.113051 7.200286,-3.391674 7.200286,-7.393848 0,-4.092619 -3.318,-7.416457 -7.426,-7.416457 z"
     id="path4"
     style="fill:#000000" />
</svg>
