<?xml version="1.0" encoding="UTF-8"?>
<svg width="14px" height="14px" viewBox="0 0 14 14" version="1.1" xmlns="http://www.w3.org/2000/svg" xmlns:xlink="http://www.w3.org/1999/xlink">
    <title>Icons/magnifier</title>
    <g id="Website" stroke="none" stroke-width="1" fill="none" fill-rule="evenodd">
        <g id="Homepage" transform="translate(-1325.000000, -29.000000)" fill="#B9BFC7">
            <g id="Form/1.-Input/1.-Light-theme" transform="translate(1312.000000, 16.000000)">
                <g id="Icons/magnifier" transform="translate(12.000000, 12.000000)">
                    <path d="M6.75,1 C9.92563731,1 12.5,3.57436269 12.5,6.75 C12.5,7.94430532 12.1358849,9.05356701 11.512609,9.97283084 L14.532932,12.9937184 C14.8864854,13.3472718 14.8864854,14.0543786 14.532932,14.407932 C14.1793786,14.7614854 13.4722718,14.7614854 13.1187184,14.407932 L13.1187184,14.407932 L10.1196663,11.4096822 C9.17278598,12.0956145 8.00861763,12.5 6.75,12.5 C3.57436269,12.5 1,9.92563731 1,6.75 C1,3.57436269 3.57436269,1 6.75,1 Z M6.75,2 C4.12664744,2 2,4.12664744 2,6.75 C2,9.37335256 4.12664744,11.5 6.75,11.5 C9.37335256,11.5 11.5,9.37335256 11.5,6.75 C11.5,4.12664744 9.37335256,2 6.75,2 Z" id="Combined-Shape"></path>
                </g>
            </g>
        </g>
    </g>
</svg>