<?xml version="1.0" encoding="UTF-8"?>
<svg width="52px" height="64px" viewBox="0 0 52 64" version="1.1" xmlns="http://www.w3.org/2000/svg" xmlns:xlink="http://www.w3.org/1999/xlink">
    <g id="Tracker-debbugger" stroke="none" stroke-width="1" fill="none" fill-rule="evenodd">
        <g id="Developers-portal-(3)" transform="translate(-1119.000000, -278.000000)" fill="#000000">
            <g id="D.-Images-&amp;-Icons/D.01-Icons/Shield/Black" transform="translate(1113.000000, 278.000000)">
                <path d="M32,0 L57.9459459,11.6216216 L57.9459459,28.9189189 C57.9459459,36.9369773 55.4684973,44.2567265 50.5135135,50.8783741 C45.5585297,57.5000329 39.3874249,61.7117025 32,63.5135135 C24.6125751,61.7117025 18.4414703,57.5000329 13.4864865,50.8783741 C8.53150703,44.2567265 6.05405405,36.9369773 6.05405405,28.9189189 L6.05405405,11.6216216 L32,0 Z M32,31.7567568 L32,57.5675676 C37.3153384,55.8558469 41.8198054,52.6351568 45.5135135,47.9054011 C49.2072216,43.1756541 51.4144086,37.7928216 52.1351351,31.7567568 L32,31.7567568 Z M32,31.7567568 L32,6.35135135 L11.8648649,15.2702703 L11.8648649,31.7567568 L32,31.7567568 Z" id="Page-1"></path>
            </g>
        </g>
    </g>
</svg>