<?xml version="1.0" encoding="UTF-8"?>
<svg width="64px" height="64px" viewBox="0 0 64 64" version="1.1" xmlns="http://www.w3.org/2000/svg" xmlns:xlink="http://www.w3.org/1999/xlink">
    <g id="Tracker-debbugger" stroke="none" stroke-width="1" fill="none" fill-rule="evenodd">
        <g id="Developers-portal-(3)" transform="translate(-423.000000, -278.000000)" fill="#131313">
            <g id="D.-Images-&amp;-Icons/D.01-Icons/Settings/Black" transform="translate(423.000000, 278.000000)">
                <path d="M37.9692,32.0004 C37.9692,35.2004 35.2852,37.7924 31.9732,37.7924 C28.6612,37.7924 25.9772,35.2004 25.9772,32.0004 C25.9772,28.8004 28.6612,26.2084 31.9732,26.2084 C35.2852,26.2084 37.9692,28.8004 37.9692,32.0004 M31.974,47.448 C23.146,47.448 15.986,40.532 15.986,32 C15.986,23.468 23.146,16.552 31.974,16.552 C40.802,16.552 47.962,23.468 47.962,32 C47.962,40.532 40.802,47.448 31.974,47.448 M61.878,35.908 L61.874,35.908 C60.554,35.032 59.802,33.58 59.806,32.036 L59.806,32 L59.806,31.964 C59.802,30.42 60.554,28.968 61.874,28.096 L61.878,28.092 C63.57,26.968 64.334,24.92 63.758,23.016 C63.578,22.412 63.378,21.812 63.162,21.224 C62.47,19.348 60.602,18.124 58.546,18.176 C56.946,18.22 55.45,17.476 54.506,16.224 C54.494,16.204 54.482,16.188 54.466,16.168 C53.522,14.92 53.25,13.316 53.786,11.864 L53.786,11.86 C54.474,9.992 53.846,7.904 52.226,6.688 C51.71,6.304 51.186,5.932 50.65,5.576 C48.95,4.452 46.69,4.516 45.058,5.728 L45.054,5.732 C43.814,6.656 42.178,6.932 40.69,6.46 C40.618,6.436 40.542,6.412 40.47,6.388 C38.974,5.928 37.814,4.776 37.37,3.32 L37.366,3.312 C36.794,1.424 35.042,0.08 33.01,0.016 C32.666,0.004 32.322,0 31.974,0 C31.626,0 31.282,0.004 30.938,0.016 C28.906,0.08 27.154,1.424 26.582,3.312 L26.578,3.32 C26.134,4.776 24.974,5.928 23.478,6.388 C23.406,6.412 23.33,6.436 23.258,6.46 C21.77,6.932 20.134,6.656 18.894,5.732 L18.89,5.728 C17.258,4.516 14.998,4.452 13.298,5.576 C12.762,5.932 12.238,6.304 11.722,6.688 C10.102,7.904 9.474,9.992 10.162,11.86 L10.162,11.864 C10.698,13.316 10.426,14.92 9.482,16.168 C9.47,16.188 9.454,16.204 9.442,16.224 C8.498,17.476 7.002,18.22 5.402,18.176 C3.346,18.124 1.478,19.348 0.786,21.224 C0.57,21.812 0.37,22.412 0.19,23.016 C-0.386,24.92 0.378,26.968 2.07,28.092 L2.078,28.096 C3.394,28.968 4.146,30.42 4.142,31.964 L4.142,32 L4.142,32.036 C4.146,33.58 3.394,35.032 2.078,35.908 L2.07,35.908 C0.378,37.032 -0.386,39.08 0.19,40.988 C0.37,41.592 0.57,42.188 0.786,42.776 C1.478,44.652 3.346,45.876 5.402,45.824 C7.002,45.78 8.498,46.528 9.442,47.776 C9.454,47.796 9.47,47.812 9.482,47.832 C10.426,49.08 10.698,50.684 10.162,52.136 L10.162,52.14 C9.474,54.008 10.102,56.096 11.722,57.316 C12.238,57.7 12.762,58.068 13.298,58.424 C14.998,59.552 17.258,59.488 18.89,58.272 L18.894,58.268 C20.134,57.344 21.77,57.072 23.258,57.54 C23.33,57.564 23.406,57.588 23.478,57.612 C24.974,58.072 26.134,59.224 26.578,60.68 L26.582,60.688 C27.154,62.576 28.906,63.92 30.938,63.984 C31.282,63.996 31.626,64 31.974,64 C32.322,64 32.666,63.996 33.01,63.984 C35.042,63.92 36.794,62.576 37.366,60.688 L37.37,60.68 C37.814,59.224 38.974,58.072 40.47,57.612 C40.542,57.588 40.618,57.564 40.69,57.54 C42.178,57.072 43.814,57.344 45.054,58.268 L45.058,58.272 C46.69,59.488 48.95,59.552 50.65,58.424 C51.186,58.068 51.71,57.7 52.226,57.316 C53.846,56.096 54.474,54.008 53.786,52.14 L53.786,52.136 C53.25,50.684 53.522,49.08 54.466,47.832 C54.482,47.812 54.494,47.796 54.506,47.776 C55.45,46.528 56.946,45.78 58.546,45.824 C60.602,45.876 62.47,44.652 63.162,42.776 C63.378,42.188 63.578,41.592 63.758,40.988 C64.334,39.08 63.57,37.032 61.878,35.908" id="Fill-4"></path>
            </g>
        </g>
    </g>
</svg>