<?xml version="1.0" encoding="UTF-8"?>
<svg width="64px" height="64px" viewBox="0 0 64 64" version="1.1" xmlns="http://www.w3.org/2000/svg" xmlns:xlink="http://www.w3.org/1999/xlink">
    <g id="Tracker-debbugger" stroke="none" stroke-width="1" fill="none" fill-rule="evenodd">
        <g id="Developers-portal-(3)" transform="translate(-883.000000, -278.000000)" fill="#131313">
            <g id="D.-Images-&amp;-Icons/D.01-Icons/Popular-creators/Black" transform="translate(883.000000, 278.000000)">
                <path d="M14.6999984,16 C16.1340809,16 17.5477692,16.3291648 18.9411135,16.9875008 C20.3344515,17.6458368 21.5444366,18.4999936 22.5711127,19.5500032 C23.5977825,20.6000064 24.4085151,21.8291584 25.0033357,23.2374976 C25.59815,24.6458432 25.8385175,26.0583232 25.7244444,27.4750016 C25.5614794,29.375008 25.4148159,30.783328 25.2844476,31.7 C25.7570412,32.3333376 25.9933349,33.3749952 25.9933349,34.8249984 C25.9933349,36.7916736 25.2437094,38.083328 23.744446,38.7 C23.2392556,40.1000064 22.7014872,41.1333312 22.1311095,41.8 C21.0555477,43.0500032 20.5177793,44.1333312 20.5177793,45.0499968 C20.5177793,46.4000064 20.8599984,47.70416 21.5444429,48.9625024 C22.2288936,50.2208384 23.1903636,51.1749952 24.4288905,51.8249984 C25.4229697,52.3416704 26.9711002,52.9874944 29.0733318,53.7625024 C31.1755634,54.537504 33.0577715,55.2749952 34.72,55.9750016 C36.3822285,56.6750016 37.4903683,57.3166656 38.0444444,57.9 C38.6311111,58.5000032 39.0874032,59.3083283 39.4133333,60.3249997 C39.7392634,61.3416717 39.9185175,62.2083296 39.9511142,62.9249997 L40,64 L6.61276589e-15,64 L-3.55271368e-15,54.1111366 L-3.55271368e-15,54.1111366 C1.33630276,53.6194694 1.47962499,53.3500032 2.46555477,52.9500032 C3.45148644,52.5499968 4.28666197,52.1750016 4.97111268,51.8249984 C6.19333803,51.1749952 7.14666041,50.2208384 7.83111111,48.9625024 C8.51556181,47.70416 8.85778091,46.4000064 8.85778091,45.0499968 C8.85778091,44.1333312 8.33630151,43.0500032 7.29333646,41.8 C6.67407303,41.083328 6.12815076,40.0500096 5.65555712,38.7 C4.15628743,38.1 3.40666823,36.8083456 3.40666823,34.8249984 C3.40666823,33.3583232 3.63481429,32.316672 4.09111268,31.7 C3.92814763,30.3666624 3.78148409,28.9583424 3.65110955,27.4750016 C3.50444601,25.5916544 3.94851044,23.754176 4.98333412,21.9625024 C6.01815154,20.1708224 7.41961842,18.7291712 9.18777856,17.6374976 C10.9559324,16.5458304 12.7933224,16 14.6999984,16 Z M40.9291369,24 C42.4252069,24 43.8740117,24.4761859 45.2755936,25.428577 C46.6771754,26.3809616 47.7834643,27.6156712 48.5944905,29.1327446 C49.4055166,30.6498179 49.755906,32.1921547 49.6456708,33.7598002 C49.5826767,34.9566049 49.4645679,36.1196734 49.2913386,37.2490572 C49.6692974,37.7716014 49.8582677,38.6312629 49.8582677,39.8280677 C49.8582677,41.4631341 49.2677241,42.5334988 48.0866187,43.0391942 C47.7244069,44.1685716 47.2992191,45.0282331 46.8110251,45.6182047 C46.5275606,45.9721902 46.3189004,46.2461005 46.1850386,46.4399484 C46.0511829,46.6337964 45.9094536,46.9119269 45.7598448,47.2743401 C45.610236,47.6367467 45.5354316,47.9865119 45.5354316,48.3236422 C45.5354316,49.4193092 45.8070859,50.4938877 46.3503945,51.5474102 C46.8937031,52.6009326 47.6535393,53.3889594 48.6299213,53.9115036 C49.1968564,54.214917 49.885825,54.5393994 50.6968511,54.8849573 C51.5078773,55.2305152 52.4645634,55.6139909 53.5669337,56.0353973 C54.6692979,56.4568101 55.4803119,56.7770722 56,56.9962095 C56,56.9962095 57.5820896,57.591028 58.541662,59.1733689 C59.2159918,60.3898505 59.3115375,60.5725493 59.5990374,61.556441 C59.9115268,62.625853 59.9980469,64 59.9980469,64 L43.7165354,64 C43.7165354,63.8651489 43.7125987,63.6797315 43.7047252,63.4437421 C43.6968517,63.2077529 43.6496106,62.7610656 43.5629959,62.1036661 C43.4763812,61.4462672 43.3582725,60.8183766 43.2086637,60.2199749 C43.0590549,59.6215731 42.8267742,58.9726122 42.5118095,58.2730727 C42.1968509,57.5735325 41.8267777,56.9962095 41.4015778,56.5410862 C40.6299192,55.698267 39.7716581,54.943957 38.8267762,54.2781305 C37.8818883,53.6123041 36.5984333,52.9675531 34.976381,52.3438711 C35.8582748,51.1807768 36.2992156,49.8407156 36.2992156,48.3236422 C36.2992156,47.9865119 36.2244112,47.6367467 36.0748024,47.2743401 C35.9251996,46.9119269 35.7874011,46.6337964 35.6614188,46.4399484 C35.5354366,46.2461005 35.3385867,45.9721902 35.0708692,45.6182047 C34.6299223,45.0956605 34.1968549,44.2444266 33.7716551,43.064477 C32.5905497,42.5082159 32,41.4294236 32,39.8280677 C32,38.6312629 32.1889764,37.7716014 32.5669291,37.2490572 C32.3936998,36.1196734 32.2755911,34.9566049 32.212603,33.7598002 C32.1023617,32.1921547 32.4527511,30.6498179 33.2637833,29.1327446 C34.0748094,27.6156712 35.1810983,26.3809616 36.5826802,25.428577 C37.984262,24.4761859 39.4330668,24 40.9291369,24 Z M53.9805848,0.0324897959 C54.2031579,0.0324897959 54.4064717,0.16477551 54.5049513,0.373755102 L54.5049513,0.373755102 L57.2723977,6.2442449 L63.4604288,7.18567347 C63.6807018,7.21914286 63.8636647,7.38069388 63.9324366,7.60236735 C64.0012865,7.824 63.9438596,8.06730612 63.7844834,8.22991837 L63.7844834,8.22991837 L59.3064717,12.7995102 L60.3636647,19.2517959 C60.4012865,19.4815102 60.3110331,19.7136735 60.1309552,19.8506531 C59.9508772,19.9876327 59.7121637,20.0056735 59.5150877,19.8972245 L59.5150877,19.8972245 L53.9805458,16.8508163 L48.44577,19.8972653 C48.3602339,19.9443673 48.2668226,19.9675918 48.1737232,19.9675918 C48.0524756,19.9675918 47.9318129,19.9281633 47.8299415,19.8506939 C47.6498635,19.7136735 47.5596491,19.4815918 47.5973099,19.2518776 L47.5973099,19.2518776 L48.654152,12.7995102 L44.1766472,8.22995918 C44.017232,8.06730612 43.9598441,7.824 44.028655,7.60232653 C44.0974269,7.38069388 44.2804678,7.21914286 44.5007018,7.18567347 L44.5007018,7.18567347 L50.688616,6.2442449 L53.4561793,0.373755102 C53.5546979,0.16477551 53.7579727,0.0324897959 53.9805848,0.0324897959 Z" id="Combined-Shape"></path>
            </g>
        </g>
    </g>
</svg>